<?xml version="1.0" encoding="UTF-8" standalone="no"?>
<!-- Created with Inkscape (http://www.inkscape.org/) -->

<svg
   width="56.190193mm"
   height="61.856792mm"
   viewBox="0 0 56.190193 61.856792"
   version="1.1"
   id="svg1"
   xml:space="preserve"
   inkscape:version="1.4.2 (2aeb623e1d, 2025-05-12)"
   sodipodi:docname="acessio_logo_light.svg"
   xmlns:inkscape="http://www.inkscape.org/namespaces/inkscape"
   xmlns:sodipodi="http://sodipodi.sourceforge.net/DTD/sodipodi-0.dtd"
   xmlns="http://www.w3.org/2000/svg"
   xmlns:svg="http://www.w3.org/2000/svg"><sodipodi:namedview
     id="namedview1"
     pagecolor="#ffffff"
     bordercolor="#000000"
     borderopacity="0.25"
     inkscape:showpageshadow="2"
     inkscape:pageopacity="0.0"
     inkscape:pagecheckerboard="0"
     inkscape:deskcolor="#d1d1d1"
     inkscape:document-units="mm"
     inkscape:zoom="0.74860517"
     inkscape:cx="310.5776"
     inkscape:cy="64.787156"
     inkscape:window-width="2494"
     inkscape:window-height="1371"
     inkscape:window-x="1986"
     inkscape:window-y="32"
     inkscape:window-maximized="1"
     inkscape:current-layer="layer1" /><defs
     id="defs1" /><g
     inkscape:label="Layer 1"
     inkscape:groupmode="layer"
     id="layer1"
     transform="translate(-108.48526,-28.707709)"><g
       id="g2"
       transform="translate(-42.503789,-50.400667)"><path
         id="path1"
         style="fill:#2f3640;fill-opacity:1;stroke-width:0.428293"
         d="m 187.22456,82.555331 18.91578,29.292479 c 3.6725,7.82958 -3.10491,16.48063 -9.20309,17.07089 l -10.88315,-0.0516 0.0121,-9.94911 10.16018,-0.0217 c 0.58102,-0.1632 0.78133,-0.899 0.41666,-1.3812 L 179.75089,91.291658 c -0.51062,-0.638955 -1.19971,-0.643006 -1.69939,0.035 l -22.08271,34.631052 c -4.51704,-4.89687 -6.22844,-9.08276 -4.02009,-13.81045 l 18.60916,-29.722761 c 4.87258,-4.511816 11.91998,-4.372769 16.6667,0.13083 z"
         sodipodi:nodetypes="cccccccccccccc" /><path
         id="rect1"
         style="fill:#1abc9c;fill-opacity:1;stroke-width:0.264583"
         d="m 179.12229,103.87079 c -0.91618,-0.005 -1.70481,0.2934 -2.17196,0.87282 l -19.93781,31.28284 c -0.99474,1.20473 -0.76687,4.64329 1.87999,4.93872 l 40.28953,-0.001 c 2.36852,-0.31273 3.1514,-2.6663 2.20142,-4.78421 l -20.17138,-31.42598 c -0.38705,-0.55752 -1.17362,-0.87844 -2.08979,-0.88319 z m -3.8117,28.44143 2.61979,-4.65625 0.0117,-0.36375 c -2.07631,-0.90284 -2.66353,-2.26096 -2.7094,-3.93295 -0.0459,-1.672 1.71474,-3.6849 3.75036,-3.69213 2.03561,-0.007 3.77911,2.21847 3.77733,3.73556 -0.002,1.51709 -0.78866,3.02207 -2.9555,3.92508 l -0.005,0.40498 2.71604,4.64069 c 0.25338,0.55927 -0.07,1.1635 -0.62762,1.20412 l -6.35794,-0.007 c -0.49451,-0.098 -0.58987,-0.72189 -0.2201,-1.25848 z"
         sodipodi:nodetypes="zcccccczcczzzcccccccc" /></g></g></svg>
